#!OML:ASF I:\salsa\salsa 7_09\Patient 1\Session 1\dancerfemale.ASF
:FULLY-SPECIFIED
:DEGREES
1716
root -2.71951 15.8858 -4.0006 23.7487 85.1652 378.142
lowerback 2.67201 2.61717 -2.1581
upperback -7.07807 3.39394 -1.86452
thorax -8.96278 1.80705 -1.13024
lowerneck 4.99243 -11.463 -12.3768
upperneck 5.12013 -16.2946 12.5371
head 2.76083 -8.21865 5.3261
rclavicle -7.10655e-015 -1.39149e-014
rhumerus -22.9862 -17.3649 -83.0699
rradius 33.8728
rwrist 16.083
rhand -2.44915 413.498
rfingers 7.12502
rthumb 23.2425 24.8803
lclavicle -7.10655e-015 -1.39149e-014
lhumerus -21.0481 1.62383 82.5902
lradius 82.5571
lwrist -29.1867
lhand -39.8226 29.0067
lfingers 7.12502
lthumb -12.7968 58.5945
rfemur -11.6444 -4.0012 23.5102
rtibia 31.737
rfoot -31.3064 -24.3354
rtoes -0.894487
lfemur -26.6013 -2.8353 -25.2768
ltibia 43.3916
lfoot -22.9701 -2.07238
ltoes -20.9628
1717
root -2.6889 15.8954 -4.03272 32.6287 85.0756 387.14
lowerback 2.7015 2.42616 -2.73836
upperback -7.01532 3.07719 -2.13968
thorax -8.93001 1.68188 -1.06456
lowerneck 5.37544 -11.816 -12.4193
upperneck 4.6913 -16.7842 12.5758
head 2.64142 -8.48073 5.34554
rclavicle -9.83984e-015 -5.96354e-015
rhumerus -24.0819 -18.968 -82.1669
rradius 33.1068
rwrist 16.2067
rhand -2.9671 413.081
rfingers 7.12502
rthumb 22.7455 24.4017
lclavicle -9.83984e-015 -5.96354e-015
lhumerus -21.4316 1.45642 82.3125
lradius 84.117
lwrist -28.8556
lhand -39.6335 28.4596
lfingers 7.12502
lthumb -12.6144 58.0587
rfemur -12.0424 -4.03364 22.5729
rtibia 32.8025
rfoot -31.0879 -24.7028
rtoes -2.79215
lfemur -25.7537 -2.49072 -26.1634
ltibia 42.1369
lfoot -22.5906 -3.20177
ltoes -19.9883
1718
root -2.65965 15.9009 -4.07121 39.8845 84.8154 394.57
lowerback 2.83976 2.26797 -3.1351
upperback -6.94407 2.81114 -2.43583
thorax -8.93921 1.56726 -1.13331
lowerneck 5.52763 -12.1958 -12.3506
upperneck 4.55214 -17.2934 12.4161
head 2.62103 -8.74134 5.26601
rclavicle 2.00276e-014 2.14687e-014
rhumerus -25.1765 -20.6578 -81.1316
rradius 32.7596
rwrist 16.7572
rhand -2.32155 412.682
rfingers 7.12502
rthumb 23.3649 24.0799
lclavicle 2.00276e-014 2.14687e-014
lhumerus -21.7184 1.29215 82.0933
lradius 85.7059
lwrist -28.73
lhand -39.3174 28.688
lfingers 7.12502
lthumb -12.3097 58.3056
rfemur -12.4844 -4.47005 21.5751
rtibia 34.0427
rfoot -30.7833 -24.5205
rtoes -5.30758
lfemur -24.9265 -1.91838 -27.0877
ltibia 41.085
lfoot -22.3219 -4.17656
ltoes -19.7967
1719
root -2.63061 15.922 -4.1128 45.1843 84.3026 400.076
lowerback 3.00661 2.15427 -3.5249
upperback -6.86098 2.60328 -2.73343
thorax -8.95236 1.48045 -1.21425
lowerneck 5.74084 -12.4831 -12.5044
upperneck 4.37106 -17.7066 12.5496
head 2.61099 -8.9575 5.31577
rclavicle 2.60905e-014 -1.55052e-014
rhumerus -26.1437 -22.2971 -80.1017
rradius 32.2257
rwrist 17.3286
rhand -2.10857 412.545
rfingers 7.12502
rthumb 23.5693 23.9694
lclavicle 2.60905e-014 -1.55052e-014
lhumerus -21.9926 1.16168 81.8818
lradius 87.3977
lwrist -28.357
lhand -38.588 29.2254
lfingers 7.12502
lthumb -11.6064 58.884
rfemur -12.8877 -4.93532 20.398
rtibia 35.381
rfoot -30.5623 -23.6168
rtoes -6.33491
lfemur -24.0567 -1.08797 -28.0793
ltibia 40.1395
lfoot -22.2411 -5.07904
ltoes -19.8717
1720
root -2.6085 15.9234 -4.15442 47.6502 83.7686 402.685
lowerback 3.15224 2.04109 -3.7848
upperback -6.80668 2.41116 -2.94119
thorax -8.98172 1.39611 -1.27374
lowerneck 6.05715 -12.6572 -12.8757
upperneck 4.02244 -17.9899 12.9238
head 2.56063 -9.1165 5.48758
rclavicle -4.13969e-014 3.29983e-014
rhumerus -27.0847 -23.512 -79.1845
rradius 31.6963
rwrist 17.2964
rhand -2.30728 412.368
rfingers 7.12502
rthumb 23.3786 23.7678
lclavicle -4.13969e-014 3.29983e-014
lhumerus -22.2533 0.993573 81.6161
lradius 89.1721
lwrist -27.4078
lhand -37.6236 28.8434
lfingers 7.12502
lthumb -10.6762 58.5522
rfemur -13.4491 -5.29028 19.3917
rtibia 36.8632
rfoot -30.1874 -22.5519
rtoes -6.62875
lfemur -23.4238 -0.0681643 -28.8749
ltibia 39.3632
lfoot -22.2088 -6.05889
ltoes -20.2009
